<svg xmlns="http://www.w3.org/2000/svg" width="430" height="430" style="width:100%;height:100%;transform:translate3d(0,0,0);content-visibility:visible" viewBox="0 0 430 430"><defs><path id="a" style="display:none"/><path id="b" fill="#08A88A" d="M65.5 101.645s-48.296 5.243-107.553 5.243S-150 101.645-150 101.645s-4.779-38.083-4.779-95.229S-150-96-150-96s49.646-5.243 102.212-5.243S65.5-96 65.5-96s4.779 35.833 4.779 97.697c0 61.864-4.779 99.948-4.779 99.948z" style="display:block" transform="translate(215 215)"/><path id="c" style="display:none"/><path id="d" style="display:none"/><path id="e" style="display:none"/><mask id="n" mask-type="alpha"><use xmlns:ns1="http://www.w3.org/1999/xlink" ns1:href="#a"/></mask><mask id="l" mask-type="alpha"><use xmlns:ns2="http://www.w3.org/1999/xlink" ns2:href="#b"/></mask><mask id="j" mask-type="alpha"><use xmlns:ns3="http://www.w3.org/1999/xlink" ns3:href="#c"/></mask><mask id="i" mask-type="alpha"><use xmlns:ns4="http://www.w3.org/1999/xlink" ns4:href="#d"/></mask><mask id="h" mask-type="alpha"><use xmlns:ns5="http://www.w3.org/1999/xlink" ns5:href="#e"/></mask><clipPath id="f"><path d="M0 0h430v430H0z"/></clipPath><clipPath id="m"><path d="M0 0h430v430H0z"/></clipPath><clipPath id="k"><path d="M0 0h430v430H0z"/></clipPath><clipPath id="g"><path d="M0 0h430v430H0z"/></clipPath></defs><g clip-path="url(#f)"><g clip-path="url(#g)" style="display:none"><g style="display:none"><path class="secondary"/><path fill="none" class="primary"/><path fill="none" class="primary"/><path fill="none" class="primary"/></g><g style="display:none"><path class="secondary"/><path class="secondary" style="mix-blend-mode:multiply"/></g><g style="display:none"><path class="secondary"/><path class="secondary" style="mix-blend-mode:multiply"/></g><g style="display:none"><path class="secondary"/><path class="secondary"/><path class="secondary" style="mix-blend-mode:multiply"/></g><path fill="none" class="primary" style="display:none"/><path fill="none" class="primary" style="display:none"/><path fill="none" class="primary" style="display:none"/><g style="display:none"><path class="quinary"/><path fill="none" class="primary"/></g><g style="display:none"><path class="tertiary"/><path class="quaternary" style="mix-blend-mode:multiply"/><path class="tertiary" style="mix-blend-mode:multiply"/></g><path fill="none" class="primary" style="display:none"/><g mask="url(#h)" style="mix-blend-mode:multiply;display:none"><path fill="none" class="tertiary"/></g><g mask="url(#i)" style="mix-blend-mode:multiply;display:none"><path fill="none" class="tertiary"/></g><g mask="url(#j)" style="mix-blend-mode:multiply;display:none"><path class="quaternary"/><path class="quaternary"/></g><path fill="none" class="primary" style="display:none"/><g style="display:none"><path class="quinary"/><path fill="none" class="primary"/></g><path fill="none" class="primary" style="display:none"/><path fill="none" class="primary" style="display:none"/><path fill="none" class="primary" style="display:none"/></g><g clip-path="url(#k)" style="display:block"><path fill="#B26836" d="M-164.851 130.05h329.8c6.7 0 12.1-5.4 12-12.1v-235.9c0-6.7-5.4-12.1-12.1-12.1h-329.7c-6.7 0-12.1 5.4-12.1 12.1v235.9c0 6.7 5.4 12.1 12.1 12.1z" class="secondary" style="display:block" transform="translate(215 218.5)"/><g opacity=".5" style="mix-blend-mode:multiply;display:block"><path fill="#B26836" d="M49.549 100.55v235.9c0 6.7 5.5 12.1 12.1 12.1h-11.5c-6.7 0-12.1-5.4-12.1-12.1v-235.9c0-6.7 5.4-12.1 12.1-12.1h11.5c-6.7 0-12.1 5.4-12.1 12.1z" class="secondary" opacity="1"/></g><path fill="#B26836" d="m7.9-18.65 8.5 37.3H0l-16.4-37.3" class="secondary" style="display:block" transform="translate(346.849 367.2)"/><g opacity=".5" style="mix-blend-mode:multiply;display:block"><path fill="#B26836" d="m346.849 385.85-16.4-37.3h8.7l16.3 37.3h-8.6z" class="secondary" opacity="1"/></g><path fill="#B26836" d="m-7.9-18.65-8.5 37.3H0l16.4-37.3" class="secondary" style="display:block" transform="translate(83.149 367.2)"/><g opacity=".5" style="mix-blend-mode:multiply;display:block"><path fill="#B26836" d="m66.749 385.85 8.5-37.3h7.1l-8.5 37.3h-7.1z" class="secondary" opacity="1"/></g><path fill="#B26836" d="M17.7 8.85c0-9.8-7.9-17.7-17.7-17.7-9.8 0-17.7 7.9-17.7 17.7" class="secondary" style="display:block" transform="translate(215.049 79.5)"/><path fill="#EBE6EF" d="M.15 104.05c59.3 0 107.6-5.2 107.6-5.2s4.8-38.1 4.8-100-4.8-97.7-4.8-97.7-60.7-5.2-113.3-5.2c-52.6 0-102.2 5.2-102.2 5.2s-4.8 45.4-4.8 102.5 4.8 95.2 4.8 95.2 48.6 5.2 107.9 5.2z" class="tertiary" style="display:block" transform="translate(172.799 218.5)"/><g opacity=".5" style="mix-blend-mode:multiply;display:block"><path fill="#EBE6EF" d="M70.449 222.15c0 57.1 4.8 95.2 4.8 95.2s45.9 4.9 102.8 5.1h-5.1c-59.2 0-107.9-5.2-107.9-5.2s-4.8-38.1-4.8-95.2 4.8-102.4 4.8-102.4 49.6-5.2 102.2-5.2h5.1c-50.6.3-97.1 5.2-97.1 5.2s-4.8 45.4-4.8 102.5z" class="tertiary" opacity="1"/></g><path fill="#3A3347" d="M0 22.7c12.5 0 22.7-10.2 22.7-22.7S12.5-22.7 0-22.7-22.7-12.5-22.7 0-12.5 22.7 0 22.7z" class="quinary" style="display:block" transform="matrix(.9 0 0 .9 337.349 149.95)"/><g mask="url(#l)" style="mix-blend-mode:multiply;display:none"><path fill="none" class="tertiary" style="mix-blend-mode:soft-light"/></g><g fill="none" stroke="#121331" stroke-linecap="round" stroke-linejoin="round" stroke-width="7" style="display:block"><path d="m222.963 70.605 47.191-47.118m-63.1 47.226-47.208-47.226m220.007 324.426H50.147c-6.708 0-12.147-5.439-12.147-12.147V99.879c0-6.708 5.439-12.147 12.147-12.147h329.706c6.708 0 12.147 5.439 12.147 12.147v235.887c0 6.708-5.439 12.147-12.147 12.147zm-49.412 0 16.366 37.318h16.367l-8.487-37.318m-255.21 0-16.366 37.318H66.744l8.486-37.318M197.266 87.732c0-9.794 7.94-17.734 17.734-17.734s17.734 7.94 17.734 17.734" class="primary"/><path d="M312.751 215.954h49.119m-49.119 42.028h49.119m-49.119 42.027h49.119m-5.279-149.728c0 10.649-8.632 19.281-19.281 19.281s-19.28-8.632-19.28-19.281S326.661 131 337.31 131c10.649 0 19.281 8.632 19.281 19.281zM280.5 316.645s-48.296 5.243-107.553 5.243S65 316.645 65 316.645s-4.779-38.083-4.779-95.229S65 119 65 119s49.646-5.243 102.212-5.243S280.5 119 280.5 119s4.779 35.833 4.779 97.697c0 61.864-4.779 99.948-4.779 99.948z" class="primary"/></g></g><g clip-path="url(#m)" style="display:none"><g style="display:none"><path class="secondary"/><path fill="none" class="primary"/><path fill="none" class="primary"/><path fill="none" class="primary"/></g><g style="display:none"><path class="secondary"/><path class="secondary" style="mix-blend-mode:multiply"/></g><g style="display:none"><path class="secondary"/><path class="secondary" style="mix-blend-mode:multiply"/></g><g style="display:none"><path class="secondary"/><path class="secondary"/><path class="secondary" style="mix-blend-mode:multiply"/></g><g style="display:none"><path class="tertiary"/><path class="quaternary" style="mix-blend-mode:multiply"/><path class="tertiary" style="mix-blend-mode:multiply"/></g><g mask="url(#n)" style="mix-blend-mode:multiply;display:none"><path fill="none" class="tertiary"/></g><path fill="none" class="primary" style="display:none"/><path fill="none" class="primary" style="display:none"/><path fill="none" class="primary" style="display:none"/><g style="display:none"><path class="quinary"/><path fill="none" class="primary"/></g><path fill="none" class="primary" style="display:none"/><path fill="none" class="primary" style="display:none"/></g></g></svg>